<svg version="1.2" baseProfile="tiny-ps" xmlns="http://www.w3.org/2000/svg" viewBox="0 0 80 80" width="80" height="80">
    <title>shrek-svg</title>
    <style>
        tspan { white-space:pre }
        .shp0 { fill: #424c43 }
        .shp1 { fill: #000000 }
        .shp2 { fill: #e5dc50 }
    </style>
    <g id="Layer">
        <path id="Layer" fill-rule="evenodd" class="shp1"
              d="M9.78 36.34C10.21 35.86 10.24 35.53 9.78 34.96C9.33 34.39 8.88 34.27 8.22 34.24C7.5 34.24 6.87 34.3 6.63 33.67C6.51 33.28 6.6 32.62 6.84 32.05C7.08 31.41 7.53 30.9 8.04 30.84C8.37 30.84 8.67 31.02 9 31.53C9.42 32.2 9.91 33.25 10.6 33.82C11.62 34.63 11.95 34.81 12.97 34.51C14.2 34.15 15.59 34 16.76 34C18.08 34 19.4 34.15 20.73 34.33C21.48 34.42 22.17 34.48 22.59 34.33C23.16 34 23.58 33.52 23.94 33.01C24.36 32.38 24.66 31.74 24.99 31.35C25.24 31.05 25.48 30.9 25.69 30.93C26.2 30.99 26.62 31.59 26.89 32.26C26.92 32.35 26.95 32.44 26.98 32.54C27 32.64 27.02 32.74 27.04 32.83C27.06 32.93 27.07 33.03 27.08 33.13C27.09 33.23 27.1 33.33 27.1 33.43C27.13 34.24 26.56 34.15 25.96 34.3C25.39 34.39 24.78 34.54 24.21 34.87C23.79 35.11 23.31 35.41 23.1 35.77C22.86 36.07 22.8 36.37 22.8 36.76L22.8 37.88C22.8 38.75 22.53 38.84 21.72 38.84C20.43 38.84 20.97 38.12 20.64 37.31C20.31 36.43 19.04 35.14 16.85 35.14C16.1 35.14 14.08 35.77 14.08 37.34C14.08 40.55 24.69 39.65 24.69 44.82C24.69 47.71 21.99 50.32 16.64 50.32C14.2 50.32 11.98 49.81 10.02 48.91C9.33 48.58 9.45 48.34 9.45 47.59L9.45 45.27C9.45 44.67 9.6 44.67 10.21 44.61L11.23 44.61C11.77 44.64 11.89 44.67 11.89 45.21L11.89 45.72C11.89 47.17 14.08 49.27 16.25 49.27C18.14 49.27 19.43 47.86 19.43 46.59C19.43 42.66 8.82 44.1 8.82 38.93C8.82 37.88 9.18 37.03 9.78 36.34ZM33.35 47.19C33.35 46.11 33.38 44.88 33.38 43.83L29.26 43.83L29.26 47.01C29.26 47.89 29.32 48.43 30.19 48.43C30.34 48.43 30.47 48.52 30.47 48.64L30.47 48.79C30.47 48.91 30.34 49 30.19 49L24.48 49C24.36 49 24.24 48.91 24.24 48.79L24.24 48.64C24.24 48.52 24.36 48.43 24.48 48.43C25.17 48.43 25.33 47.62 25.33 47.01L25.33 39.89C25.33 39.32 25.14 38.69 24.48 38.69C24.36 38.69 24.24 38.57 24.24 38.45L24.24 38.3C24.24 38.15 24.36 38.03 24.48 38.03L30.19 38.03C30.23 38.03 30.27 38.03 30.3 38.05C30.33 38.06 30.36 38.08 30.39 38.11C30.41 38.13 30.43 38.16 30.44 38.19C30.46 38.23 30.47 38.26 30.47 38.3L30.47 38.45C30.47 38.57 30.34 38.69 30.19 38.69C29.14 38.69 29.26 39.05 29.26 40.01L29.26 42.63L33.38 42.63C33.38 41.78 33.35 40.76 33.35 39.92C33.35 39.17 33.17 38.69 32.42 38.69C32.27 38.69 32.15 38.57 32.15 38.45L32.15 38.3C32.15 38.26 32.16 38.23 32.17 38.19C32.18 38.16 32.2 38.13 32.23 38.11C32.25 38.08 32.28 38.06 32.32 38.05C32.35 38.03 32.38 38.03 32.42 38.03L38.13 38.03C38.25 38.03 38.37 38.15 38.37 38.3L38.37 38.45C38.37 38.57 38.25 38.69 38.13 38.69C37.23 38.69 37.35 39.59 37.35 40.28L37.35 47.01C37.35 47.68 37.38 48.43 38.13 48.43C38.25 48.43 38.37 48.52 38.37 48.64L38.37 48.79C38.37 48.91 38.25 49 38.13 49L32.42 49C32.27 49 32.15 48.91 32.15 48.79L32.15 48.64C32.15 48.52 32.27 48.43 32.42 48.43C33.2 48.43 33.35 47.98 33.35 47.19ZM43.57 46.89C43.57 47.49 43.57 48.43 44.26 48.43C44.41 48.43 44.5 48.52 44.5 48.64L44.5 48.79C44.5 48.91 44.41 49 44.26 49L39.09 49C38.94 49 38.85 48.91 38.85 48.79L38.85 48.64C38.85 48.52 38.94 48.43 39.09 48.43C39.84 48.43 39.99 48.28 39.99 47.46L39.99 39.71C39.99 38.93 39.84 38.69 39.09 38.69C38.97 38.69 38.85 38.57 38.85 38.45L38.85 38.3C38.85 38.15 38.97 38.03 39.09 38.03L45.37 38.03C48.29 38.03 49.49 38.9 49.49 40.7C49.49 42.33 48.14 43.29 46.88 43.62C46.7 43.68 46.58 43.71 46.46 43.71C46.13 43.77 46.13 43.71 46.49 43.77C46.58 43.77 46.73 43.8 46.88 43.83C47.69 43.98 48.2 44.43 48.65 45.3C49.04 46.11 49.4 46.83 49.79 47.65C50.06 48.16 50.54 48.7 50.81 48.7C51.03 48.7 51.12 48.7 51.12 49C51.12 49.3 50.93 49.3 50.6 49.3L49.49 49.3C47.54 49.3 47.24 48.7 46.37 46.96C46.04 46.23 45.7 45.51 45.31 44.79C45.16 44.52 45.04 44.52 44.74 44.52C44.29 44.52 44.02 44.52 43.57 44.52L43.57 46.89ZM44.53 43.17C45.65 43.17 46.34 42.23 46.34 41.09C46.34 40.04 45.62 38.99 44.5 38.99L43.57 38.99L43.57 43.17L44.53 43.17ZM54.96 37.88C57.85 37.88 59.47 39.05 59.98 41.51C60.04 41.9 60.04 42.29 59.89 42.56C59.77 42.81 59.53 42.96 59.14 42.96L53.1 42.96C53.04 43.92 53.22 44.79 53.91 45.51C54.42 46.05 55.17 46.35 56.02 46.35C56.98 46.35 57.85 46.05 58.33 45.42C58.81 44.85 59.14 44.79 59.47 45.06C59.62 45.21 59.62 45.54 59.35 46.05C58.45 47.49 56.77 48.43 54.69 48.43C51.81 48.43 49.64 46.32 49.64 43.23C49.64 40.1 51.48 37.88 54.96 37.88ZM55.02 39.08C53.64 39.08 53.13 40.61 53.13 41.96L56.77 41.96C56.8 41.81 56.83 41.66 56.83 41.48C56.83 40.16 56.05 39.08 55.02 39.08ZM68.28 49L64.61 43.56L64.61 47.86C64.61 48.16 64.7 48.55 65.18 48.55C65.3 48.55 65.42 48.64 65.42 48.76L65.42 48.91C65.42 49.03 65.3 49.12 65.18 49.12L59.86 49.12C59.71 49.12 59.62 49.03 59.62 48.91L59.62 48.76C59.62 48.64 59.71 48.55 59.86 48.55C60.43 48.55 60.77 48.52 60.77 47.83L60.77 39.71C60.77 38.96 60.55 38.75 59.86 38.75C59.74 38.75 59.62 38.63 59.62 38.48L59.62 38.36C59.62 38.21 59.74 38.09 59.86 38.09L65.27 38.09C65.39 38.09 65.51 38.21 65.51 38.36L65.51 38.48C65.51 38.63 65.39 38.75 65.27 38.75C64.46 38.75 64.61 39.53 64.61 40.13L64.61 42.78L67.74 39.62C68.13 39.23 67.95 38.9 67.44 38.81L67.08 38.81C66.99 38.81 66.9 38.69 66.9 38.54L66.9 38.39C66.9 38.27 66.99 38.15 67.08 38.15L71.65 38.15C71.77 38.15 71.86 38.27 71.86 38.39L71.86 38.54C71.86 38.69 71.77 38.81 71.65 38.81C70.98 38.81 70.65 38.99 70.17 39.47L67.26 42.33L71.04 47.89C71.41 48.46 72.37 49.75 73.06 49.75C73.18 49.75 73.3 49.84 73.3 49.96L73.3 50.08C73.3 50.2 73.18 50.29 73.06 50.29L68.04 50.29C67.89 50.29 67.8 50.2 67.8 50.08L67.8 49.96C67.8 49.84 67.89 49.75 68.04 49.75C68.46 49.75 68.43 49.27 68.28 49ZM7.05 33.22C7.23 33.7 7.71 33.67 8.07 33.43C8.37 33.25 8.52 33.04 8.58 32.8C8.64 32.56 8.58 32.29 8.52 31.95C8.43 31.59 8.28 31.26 8.01 31.26C7.65 31.29 7.35 31.65 7.2 32.07C7.02 32.47 6.96 32.92 7.05 33.22ZM26.41 32.1C26.26 31.71 26.05 31.35 25.75 31.35C25.51 31.32 25.39 31.62 25.33 31.95C25.24 32.25 25.2 32.53 25.24 32.77C25.3 32.98 25.42 33.19 25.66 33.34C25.96 33.55 26.35 33.58 26.5 33.13C26.59 32.89 26.53 32.47 26.41 32.1Z"/>
        <path id="Layer" fill-rule="evenodd" class="shp2"
              d="M9.78 35.74C10.21 35.26 10.24 34.9 9.78 34.33C9.33 33.79 8.88 33.64 8.22 33.64C7.5 33.64 6.87 33.7 6.63 33.07C6.51 32.68 6.6 32.01 6.84 31.41C7.08 30.81 7.53 30.27 8.04 30.24C8.37 30.21 8.67 30.42 9 30.9C9.42 31.59 9.91 32.62 10.6 33.22C11.62 34 11.95 34.21 12.97 33.91C14.2 33.52 15.59 33.4 16.76 33.4C18.08 33.4 19.4 33.55 20.73 33.7C21.48 33.82 22.17 33.88 22.59 33.7C23.16 33.4 23.58 32.89 23.94 32.38C24.36 31.77 24.66 31.14 24.99 30.75C25.24 30.45 25.48 30.3 25.69 30.33C26.2 30.39 26.62 30.99 26.89 31.62C27.04 32.08 27.1 32.53 27.1 32.8C27.13 33.64 26.56 33.55 25.96 33.67C25.39 33.79 24.78 33.94 24.21 34.27C23.79 34.51 23.31 34.81 23.1 35.14C22.86 35.47 22.8 35.77 22.8 36.16L22.8 37.28C22.8 38.15 22.53 38.21 21.72 38.21C20.43 38.21 20.97 37.52 20.64 36.7C20.31 35.8 19.04 34.54 16.85 34.54C16.1 34.54 14.08 35.17 14.08 36.7C14.08 39.98 24.69 39.05 24.69 44.19C24.69 47.08 21.99 49.72 16.64 49.72C14.2 49.72 11.98 49.21 10.02 48.31C9.33 47.98 9.45 47.74 9.45 46.96L9.45 44.67C9.45 44.07 9.6 44.04 10.21 44.01C10.29 44 10.38 44 10.46 43.99C10.55 43.99 10.63 43.99 10.72 43.99C10.8 43.99 10.89 43.99 10.97 43.99C11.06 44 11.14 44 11.23 44.01C11.77 44.04 11.89 44.04 11.89 44.58L11.89 45.12C11.89 46.56 14.08 48.67 16.25 48.67C18.14 48.67 19.43 47.23 19.43 45.99C19.43 42.05 8.82 43.5 8.82 38.33C8.82 37.27 9.18 36.4 9.78 35.74ZM33.35 46.59C33.35 45.48 33.38 44.25 33.38 43.23L29.26 43.23L29.26 46.41C29.26 47.28 29.32 47.8 30.19 47.8C30.34 47.8 30.47 47.92 30.47 48.04L30.47 48.16C30.47 48.31 30.34 48.4 30.19 48.4L24.48 48.4C24.45 48.4 24.42 48.39 24.39 48.38C24.36 48.37 24.33 48.35 24.31 48.33C24.29 48.31 24.27 48.28 24.26 48.25C24.25 48.22 24.24 48.19 24.24 48.16L24.24 48.04C24.24 47.92 24.36 47.8 24.48 47.8C25.17 47.8 25.33 47.01 25.33 46.38L25.33 39.29C25.33 38.72 25.14 38.09 24.48 38.09C24.36 38.09 24.24 37.97 24.24 37.82L24.24 37.7C24.24 37.55 24.36 37.43 24.48 37.43L30.19 37.43C30.23 37.43 30.27 37.43 30.3 37.45C30.33 37.46 30.36 37.48 30.39 37.51C30.41 37.53 30.43 37.56 30.44 37.59C30.46 37.63 30.47 37.66 30.47 37.7L30.47 37.82C30.47 37.85 30.46 37.89 30.44 37.92C30.43 37.95 30.41 37.98 30.39 38.01C30.36 38.03 30.33 38.05 30.3 38.07C30.27 38.08 30.23 38.09 30.19 38.09C29.14 38.09 29.26 38.45 29.26 39.41L29.26 42L33.38 42C33.38 41.18 33.35 40.13 33.35 39.29C33.35 38.57 33.17 38.09 32.42 38.09C32.38 38.09 32.35 38.08 32.32 38.07C32.28 38.05 32.25 38.03 32.23 38.01C32.2 37.98 32.18 37.95 32.17 37.92C32.16 37.89 32.15 37.85 32.15 37.82L32.15 37.7C32.15 37.66 32.16 37.63 32.17 37.59C32.18 37.56 32.2 37.53 32.23 37.51C32.25 37.48 32.28 37.46 32.32 37.45C32.35 37.43 32.38 37.43 32.42 37.43L38.13 37.43C38.25 37.43 38.37 37.55 38.37 37.7L38.37 37.82C38.37 37.97 38.25 38.09 38.13 38.09C37.23 38.09 37.35 38.96 37.35 39.71L37.35 46.41C37.35 47.08 37.38 47.8 38.13 47.8C38.25 47.8 38.37 47.92 38.37 48.04L38.37 48.16C38.37 48.31 38.25 48.4 38.13 48.4L32.42 48.4C32.27 48.4 32.15 48.31 32.15 48.16L32.15 48.04C32.15 47.92 32.27 47.8 32.42 47.8C33.2 47.8 33.35 47.34 33.35 46.59ZM43.57 46.29C43.57 46.89 43.57 47.8 44.26 47.8C44.41 47.8 44.5 47.92 44.5 48.04L44.5 48.16C44.5 48.31 44.41 48.4 44.26 48.4L39.09 48.4C38.94 48.4 38.85 48.31 38.85 48.16L38.85 48.04C38.85 47.92 38.94 47.8 39.09 47.8C39.84 47.8 39.99 47.68 39.99 46.86L39.99 39.11C39.99 38.33 39.84 38.09 39.09 38.09C38.97 38.09 38.85 37.97 38.85 37.82L38.85 37.7C38.85 37.55 38.97 37.43 39.09 37.43L45.37 37.43C48.29 37.43 49.49 38.3 49.49 40.1C49.49 41.69 48.14 42.69 46.88 43.02C46.7 43.05 46.58 43.08 46.46 43.11C46.4 43.12 46.35 43.12 46.32 43.13C46.36 43.13 46.42 43.13 46.49 43.14C46.58 43.17 46.73 43.17 46.88 43.2C47.69 43.38 48.2 43.83 48.65 44.7C49.04 45.48 49.4 46.23 49.79 47.01C50.06 47.56 50.54 48.1 50.81 48.1C51.03 48.1 51.12 48.1 51.12 48.37C51.12 48.67 50.93 48.67 50.6 48.67L49.49 48.67C47.54 48.67 47.24 48.1 46.37 46.32C46.04 45.6 45.7 44.88 45.31 44.16C45.16 43.92 45.04 43.89 44.74 43.89C44.29 43.89 44.02 43.89 43.57 43.89L43.57 46.29ZM44.53 42.54C45.65 42.54 46.34 41.63 46.34 40.49C46.34 39.44 45.62 38.36 44.5 38.36L43.57 38.36L43.57 42.54L44.53 42.54ZM54.96 37.27C57.85 37.27 59.47 38.42 59.98 40.88C60.04 41.27 60.04 41.66 59.89 41.96C59.77 42.2 59.53 42.35 59.14 42.35L53.1 42.35C53.04 43.32 53.22 44.19 53.91 44.88C54.42 45.42 55.17 45.75 56.02 45.75C56.98 45.75 57.85 45.45 58.33 44.82C58.81 44.25 59.14 44.19 59.47 44.43C59.62 44.58 59.62 44.94 59.35 45.42C58.45 46.89 56.77 47.8 54.69 47.8C51.81 47.8 49.64 45.69 49.64 42.59C49.64 39.53 51.48 37.27 54.96 37.27ZM55.02 38.48C53.64 38.48 53.13 40.01 53.13 41.36L56.77 41.36C56.8 41.21 56.83 41.03 56.83 40.88C56.83 39.59 56.05 38.48 55.02 38.48ZM68.28 48.4L64.61 42.96L64.61 47.22C64.61 47.56 64.7 47.92 65.18 47.92C65.3 47.92 65.42 48.04 65.42 48.16L65.42 48.28C65.42 48.43 65.3 48.52 65.18 48.52L59.86 48.52C59.71 48.52 59.62 48.43 59.62 48.28L59.62 48.16C59.62 48.04 59.71 47.92 59.86 47.92C60.43 47.92 60.77 47.89 60.77 47.22L60.77 39.08C60.77 38.36 60.55 38.15 59.86 38.15C59.74 38.15 59.62 38.03 59.62 37.88L59.62 37.73C59.62 37.61 59.74 37.49 59.86 37.49L65.27 37.49C65.39 37.49 65.51 37.61 65.51 37.73L65.51 37.88C65.51 38.03 65.39 38.15 65.27 38.15C64.46 38.15 64.61 38.93 64.61 39.56L64.61 42.14L67.74 39.02C68.13 38.63 67.95 38.3 67.44 38.21C67.35 38.21 67.23 38.18 67.08 38.18C66.99 38.18 66.9 38.09 66.9 37.94L66.9 37.79C66.9 37.64 66.99 37.55 67.08 37.55L71.65 37.55C71.77 37.55 71.86 37.64 71.86 37.79L71.86 37.94C71.86 38.09 71.77 38.18 71.65 38.18C70.98 38.18 70.65 38.39 70.17 38.87L67.26 41.72L71.04 47.28C71.41 47.83 72.37 49.15 73.06 49.15C73.18 49.15 73.3 49.24 73.3 49.36L73.3 49.48C73.3 49.57 73.18 49.69 73.06 49.69L68.04 49.69C67.89 49.69 67.8 49.57 67.8 49.48L67.8 49.36C67.8 49.24 67.89 49.15 68.04 49.15C68.46 49.15 68.43 48.64 68.28 48.4ZM7.05 32.59C7.23 33.07 7.71 33.04 8.07 32.83C8.37 32.65 8.52 32.44 8.58 32.2C8.64 31.95 8.58 31.65 8.52 31.32C8.43 30.96 8.28 30.63 8.01 30.66C7.65 30.69 7.35 31.05 7.2 31.47C7.02 31.86 6.96 32.32 7.05 32.59ZM26.41 31.47C26.26 31.08 26.05 30.75 25.75 30.72C25.51 30.72 25.39 31.02 25.33 31.35C25.24 31.65 25.2 31.92 25.24 32.14C25.3 32.38 25.42 32.56 25.66 32.74C25.96 32.95 26.35 32.98 26.5 32.53C26.59 32.25 26.53 31.83 26.41 31.47Z"/>
    </g>
</svg>
